<?xml version="1.0" encoding="utf-8" ?>
<svg baseProfile="full" height="116.40657676964035" version="1.1" width="108.87593404318629" xmlns="http://www.w3.org/2000/svg" xmlns:ev="http://www.w3.org/2001/xml-events" xmlns:xlink="http://www.w3.org/1999/xlink"><defs /><rect fill="white" height="116.40657676964035" width="108.87593404318629" x="0" y="0" /><path d="M58.54559032693173,49.64573983203148 m-2.966616831633418,26.014947600477665 l-1.369207768446193,6.846038842230964 0.6846038842230965,8.215246610677157 l0.4564025894820643,-0.22820129474103215 m16.88689581083638,-39.7070252849396 l-17.115097105577412,40.619830463903725 m2.2820129474103217,-42.21723952709095 l10.040856968605416,-0.4564025894820643 5.476831073784772,0.6846038842230965 m-9.128051789641287,-0.9128051789641286 l2.0538116526692893,-1.597409063187225 0.9128051789641286,-4.564025894820643 m0.9128051789641286,0.0 l1.8256103579282572,0.0 m0.0,6.846038842230964 l0.0,0.22820129474103215 m1.1410064737051608,-6.3896362527489 l2.2820129474103217,-0.4564025894820643 -2.2820129474103217,5.705032368525804 l0.0,-1.597409063187225 m-2.510214242151354,-5.476831073784772 l-0.22820129474103215,-2.738415536892386 -3.423019421115482,-8.215246610677157 l-1.1410064737051608,-5.248629779043739 m8.899850494900253,17.343298400318446 l5.705032368525804,-5.933233663266836 5.933233663266836,-3.8794220105975468 m-13.235675094979866,10.269058263346446 l1.369207768446193,-3.8794220105975468 0.4564025894820643,-13.692077684461928 m-47.465869306134685,64.80916770645312 " fill="none" stroke="black" stroke-width="1" /></svg>